# xmcd
#
# Track frame offsets: 
#        150
#        14314
#        19568
#        28580
#        35751
#        44330
#        55043
#        62396
#        70858
#        78727
#        85842
#        102213
#        118806
#        138549
#        152219
#        171351
#        190933
#        197373
#        205207
#        214458
#        222238
#        235577
#        244171
#        257405
#        265268
#        276250
#        284762
#        297776
#        307128
#        317366
#        326821
#        336271
#        345695
#        356884
#
# Disc length: 5015 seconds
#
# Revision: 2
# Processed by: cddbd v1.5.2PL0 Copyright (c) Steve Scherf et al.
# Submitted via: ExactAudioCopy v1.0b3
#
DISCID=0f139522
DTITLE=Various Artist - How the West Was Won
DYEAR=2007
DGENRE=Western
TTITLE0=Shenandoah - Bing Crosby and Rosemary Clooney - Shenandoah (Acro
TTITLE0=ss The Wild Missouri) - Bound for the Promised Land
TTITLE1=Bing Crosby and Jack Halloran Singers - En Roulant Ma Boule Roul
TTITLE1=ant
TTITLE2=Bing Crosby and Tarrytown Trio - Lupita Divina
TTITLE3=Sam Hinton - The Sioux Indians
TTITLE4=Bing Crosby - Shenandoah
TTITLE5=Bing Crosby and Rosemary Clooney - Crossing the Plains
TTITLE6=Sam Hinton - Buffalo Boy
TTITLE7=Rosemary Clooney - Sweet Betsy from Pike
TTITLE8=Jimmie Driftwood - Ox Driving Song
TTITLE9=Sam Hinton - Will You Go West With Me
TTITLE10=Bing Crosby and Rosemary Clooney - Jimmie Driftwood - Buffalo G
TTITLE10=als - General Custer
TTITLE11=Bing Crosby - All 'Pewtrified' - Will You Come to the Bower
TTITLE12=Sam Hinton - Bing Crosby and Rosemary Clooney - Bile them Cabba
TTITLE12=ge Down - Green Grow the Lilacs
TTITLE13=Sam Hinton - Jimmie Driftwood - A Ripping Trip - What was You
TTITLE13=r Name in the States?
TTITLE14=Rosemary Clooney - Bing Crosby - California Ball - When I Wen
TTITLE14=t off to Prospect
TTITLE15=Sam Hinton - Bing Crosby - Lane County Bachelor - Old Settler
TTITLE15='s Song
TTITLE16=Jack Halloran Singers - Drill Ye Tarriers Drill
TTITLE17=Rosemary Clooney - A Railroader's Bride I'll Be
TTITLE18=Bing Crosby - 900 Miles
TTITLE19=Jimmie Driftwood - Billy the Kid
TTITLE20=Bing Crosby - Hang Me, Oh Hang Me!
TTITLE21=Jimmie Driftwood - Jesse James
TTITLE22=Bing Crosby and Rosemary Clooney - The Tarrytown Trio - Skip to
TTITLE22=My Lou - Crwdad Song
TTITLE23=Rosemary Clooney - Careless Love
TTITLE24=Sam Hinton - Hell in Texas
TTITLE25=Bing Crosby and Rosemary Clooney - Jennie Jenkins
TTITLE26=Bing Crosby - Streets of Laredo
TTITLE27=Sam Hinton - Down by the Brazos
TTITLE28=Bing Crosby - Git Along Little Dogies
TTITLE29=Bing Crosby (Jimmie Driftwood) - Buckskin Joe
TTITLE30=Bing Crosby - Red River Valley
TTITLE31=The Deseret Mormon Choir - Hancart Song
TTITLE32=The Deseret Mormon Choir - The Spirit of God Like a Fire is B
TTITLE32=urning
TTITLE33=The Salt Lake Mormon Tabernacle Choir - Come Come Ye Saints
EXTD=Bear Family Records BCD 16634 AR - RCA
EXTT0=
EXTT1=
EXTT2=
EXTT3=
EXTT4=
EXTT5=
EXTT6=
EXTT7=
EXTT8=
EXTT9=
EXTT10=
EXTT11=
EXTT12=
EXTT13=
EXTT14=
EXTT15=
EXTT16=
EXTT17=
EXTT18=
EXTT19=
EXTT20=
EXTT21=
EXTT22=
EXTT23=
EXTT24=
EXTT25=
EXTT26=
EXTT27=
EXTT28=
EXTT29=
EXTT30=
EXTT31=
EXTT32=
EXTT33=
PLAYORDER=
